<svg width="225" height="12" viewBox="0 0 225 12" fill="none" xmlns="http://www.w3.org/2000/svg">
<path d="M0.609375 6.82617C0.609375 6.75586 0.650391 6.7207 0.732422 6.7207H1.48828C1.55859 6.7207 1.60742 6.75977 1.63477 6.83789C1.9707 7.83789 2.82617 8.33789 4.20117 8.33789C4.91992 8.33789 5.46875 8.21094 5.84766 7.95703C6.23047 7.69922 6.42188 7.38086 6.42188 7.00195C6.42188 6.62305 6.30078 6.31836 6.05859 6.08789C5.82031 5.85352 5.44531 5.66406 4.93359 5.51953L2.83008 4.92188C1.4707 4.53125 0.791016 3.79102 0.791016 2.70117C0.791016 2.0293 1.07617 1.48242 1.64648 1.06055C2.2207 0.634766 2.98828 0.421875 3.94922 0.421875C4.91016 0.421875 5.68555 0.628906 6.27539 1.04297C6.86914 1.45312 7.24219 2.01758 7.39453 2.73633C7.41016 2.83398 7.36914 2.88281 7.27148 2.88281H6.51562C6.44531 2.88281 6.39648 2.8418 6.36914 2.75977C6.0332 1.75977 5.23438 1.25977 3.97266 1.25977C3.30859 1.25977 2.79102 1.38867 2.41992 1.64648C2.05273 1.90039 1.86914 2.2207 1.86914 2.60742C1.86914 2.99023 1.98828 3.29297 2.22656 3.51562C2.46875 3.73828 2.84961 3.92578 3.36914 4.07812L5.47266 4.68164C6.82422 5.06445 7.5 5.80469 7.5 6.90234C7.5 7.58203 7.20508 8.13281 6.61523 8.55469C6.0293 8.97266 5.22461 9.18164 4.20117 9.18164C3.17773 9.18164 2.36133 8.97656 1.75195 8.56641C1.44727 8.36328 1.17969 8.10547 0.949219 7.79297C0.722656 7.47656 0.609375 7.1543 0.609375 6.82617ZM11.8418 9.19336C10.9707 9.19336 10.248 8.89844 9.67383 8.30859C9.10352 7.71484 8.81836 6.87305 8.81836 5.7832C8.81836 4.68945 9.10352 3.85352 9.67383 3.27539C10.248 2.69336 10.9961 2.40234 11.918 2.40234C12.8438 2.40234 13.5977 2.69922 14.1797 3.29297C14.7656 3.88281 15.0586 4.66602 15.0586 5.64258V5.94141C15.0586 6.10156 14.9785 6.18164 14.8184 6.18164H9.9082C9.97461 6.9082 10.1895 7.45117 10.5527 7.81055C10.916 8.16992 11.377 8.34961 11.9355 8.34961C12.8184 8.34961 13.459 7.99023 13.8574 7.27148C13.9043 7.19336 13.9531 7.1543 14.0039 7.1543H14.7598C14.8613 7.1543 14.9004 7.20117 14.877 7.29492C14.7168 7.87305 14.3887 8.33398 13.8926 8.67773C13.3965 9.02148 12.7129 9.19336 11.8418 9.19336ZM9.9082 5.33789H13.9805C13.9453 4.70898 13.7305 4.20312 13.3359 3.82031C12.9414 3.43359 12.4707 3.24023 11.9238 3.24023C11.3809 3.24023 10.9258 3.41797 10.5586 3.77344C10.1914 4.12891 9.97461 4.65039 9.9082 5.33789ZM19.5645 8.57812C18.6777 8.57812 17.9453 8.30273 17.3672 7.75195C16.793 7.20117 16.5059 6.44922 16.5059 5.49609C16.5059 4.54297 16.7949 3.78906 17.373 3.23438C17.9551 2.67969 18.7051 2.40234 19.623 2.40234C20.1348 2.40234 20.627 2.46289 21.0996 2.58398C21.5723 2.70117 21.9121 2.82031 22.1191 2.94141L22.4473 3.11719V8.2793C22.4473 10.2012 21.4473 11.1621 19.4473 11.1621C18.6777 11.1621 18.0605 11 17.5957 10.6758C17.1309 10.3516 16.8672 9.91211 16.8047 9.35742C16.7969 9.2793 16.8379 9.24023 16.9277 9.24023H17.6836C17.7539 9.24023 17.8008 9.2793 17.8242 9.35742C17.9219 9.64648 18.1074 9.87891 18.3809 10.0547C18.6582 10.2305 19.0137 10.3184 19.4473 10.3184C20.1113 10.3184 20.5957 10.1562 20.9004 9.83203C21.209 9.50781 21.3633 8.99023 21.3633 8.2793V8.2207C20.8438 8.45898 20.2441 8.57812 19.5645 8.57812ZM19.7461 3.24023C19.0977 3.24023 18.5742 3.43945 18.1758 3.83789C17.7812 4.23242 17.584 4.78711 17.584 5.50195C17.584 6.2168 17.7793 6.76953 18.1699 7.16016C18.5645 7.54688 19.0645 7.74023 19.6699 7.74023C20.2793 7.74023 20.8438 7.62109 21.3633 7.38281V3.59766C21.3633 3.58984 21.2949 3.55859 21.1582 3.50391C21.0254 3.44922 20.8223 3.39258 20.5488 3.33398C20.2754 3.27148 20.0078 3.24023 19.7461 3.24023ZM24.7324 6.35742V2.70117C24.7324 2.62305 24.7715 2.58203 24.8496 2.57812H25.6934C25.7715 2.57812 25.8105 2.61914 25.8105 2.70117V6.35742C25.8105 6.99023 25.9746 7.47852 26.3027 7.82227C26.6309 8.16602 27.0469 8.33789 27.5508 8.33789C27.7812 8.33789 28.0078 8.29492 28.2305 8.20898C28.457 8.11914 28.6445 8.01562 28.793 7.89844C28.9414 7.77734 29.0742 7.6543 29.1914 7.5293C29.418 7.2832 29.5312 7.13281 29.5312 7.07812V2.70117C29.5312 2.62305 29.5703 2.58203 29.6484 2.57812H30.4922C30.5703 2.57812 30.6094 2.61914 30.6094 2.70117V8.88281C30.6094 8.96094 30.5703 9 30.4922 9H29.8301C29.752 9 29.709 8.96094 29.7012 8.88281L29.5898 8.2207C29.5391 8.29883 29.4355 8.40234 29.2793 8.53125C29.127 8.66016 28.9766 8.76562 28.8281 8.84766C28.4375 9.07031 27.9922 9.18164 27.4922 9.18164C26.6836 9.18164 26.0215 8.93164 25.5059 8.43164C24.9902 7.92773 24.7324 7.23633 24.7324 6.35742ZM33.0176 8.88281V2.70117C33.0176 2.61914 33.0566 2.57812 33.1348 2.57812H33.7969C33.875 2.57812 33.918 2.61914 33.9258 2.70117L34.0371 3.35742C34.084 3.29102 34.1855 3.19141 34.3418 3.05859C34.498 2.92188 34.6504 2.8125 34.7988 2.73047C35.1816 2.51172 35.627 2.40234 36.1348 2.40234C36.9434 2.40234 37.6055 2.65234 38.1211 3.15234C38.6367 3.65234 38.8945 4.3418 38.8945 5.2207V8.88281C38.8945 8.96094 38.8555 9 38.7773 9H37.9336C37.8555 9 37.8164 8.96094 37.8164 8.88281V5.2207C37.8164 4.58789 37.6523 4.09961 37.3242 3.75586C36.9961 3.41211 36.5801 3.24023 36.0762 3.24023C35.8457 3.24023 35.6172 3.28516 35.3906 3.375C35.168 3.46094 34.9824 3.56445 34.834 3.68555C34.6855 3.80273 34.5547 3.92383 34.4414 4.04883C34.2109 4.29492 34.0957 4.44531 34.0957 4.5V8.88281C34.0957 8.96094 34.0566 9 33.9785 9H33.1348C33.0566 9 33.0176 8.96094 33.0176 8.88281ZM43.6465 9.18164C42.791 9.18164 42.0859 8.89258 41.5312 8.31445C40.9805 7.73242 40.7051 6.89453 40.7051 5.80078C40.7051 4.70312 40.9883 3.86328 41.5547 3.28125C42.125 2.69531 42.8613 2.40234 43.7637 2.40234C44.0684 2.40234 44.3711 2.43164 44.6719 2.49023C44.9727 2.54883 45.1934 2.60742 45.334 2.66602L45.5625 2.75977V0.720703C45.5625 0.642578 45.6035 0.601562 45.6855 0.597656H46.5234C46.6016 0.597656 46.6426 0.638672 46.6465 0.720703V8.88281C46.6465 8.96094 46.6055 9 46.5234 9H45.8672C45.7891 9 45.7441 8.96094 45.7324 8.88281L45.627 8.2207C45.5801 8.28711 45.4785 8.38867 45.3223 8.52539C45.1699 8.6582 45.0234 8.76562 44.8828 8.84766C44.5195 9.07031 44.1074 9.18164 43.6465 9.18164ZM43.8574 3.24023C43.2441 3.24023 42.7441 3.45312 42.3574 3.87891C41.9746 4.30078 41.7832 4.93359 41.7832 5.77734C41.7832 6.62109 41.959 7.25977 42.3105 7.69336C42.6621 8.12305 43.127 8.33789 43.7051 8.33789C44.252 8.33789 44.7617 8.06836 45.2344 7.5293C45.4531 7.2793 45.5625 7.12891 45.5625 7.07812V3.59766C45.043 3.35938 44.4746 3.24023 43.8574 3.24023ZM49.2422 8.63672C48.793 8.26953 48.5684 7.77148 48.5684 7.14258C48.5684 6.50977 48.7988 6.01172 49.2598 5.64844C49.7246 5.28125 50.373 5.09766 51.2051 5.09766H53.25V5.03906C53.25 3.83984 52.6484 3.24023 51.4453 3.24023C51.0703 3.24023 50.75 3.33008 50.4844 3.50977C50.2227 3.68945 50.043 3.91992 49.9453 4.20117C49.9219 4.2793 49.875 4.31836 49.8047 4.31836H49.0488C48.959 4.31836 48.918 4.2793 48.9258 4.20117C48.9883 3.6582 49.2461 3.22266 49.6992 2.89453C50.1523 2.56641 50.7344 2.40234 51.4453 2.40234C52.375 2.40234 53.0879 2.63281 53.584 3.09375C54.0801 3.55078 54.3281 4.19922 54.3281 5.03906V8.88281C54.3281 8.96094 54.2871 9 54.2051 9H53.5488C53.4707 9 53.4258 8.96094 53.4141 8.88281L53.3086 8.2207C53.2617 8.29492 53.1582 8.39844 52.998 8.53125C52.8379 8.66016 52.6777 8.76562 52.5176 8.84766C52.0957 9.07031 51.6191 9.18164 51.0879 9.18164C50.3105 9.18164 49.6953 9 49.2422 8.63672ZM49.6465 7.14258C49.6465 7.5332 49.7754 7.83008 50.0332 8.0332C50.2949 8.23633 50.666 8.33789 51.1465 8.33789C51.4043 8.33789 51.6523 8.29492 51.8906 8.20898C52.1328 8.11914 52.3301 8.01562 52.4824 7.89844C52.6387 7.77734 52.7773 7.6543 52.8984 7.5293C53.0195 7.4043 53.1074 7.30078 53.1621 7.21875C53.2207 7.13281 53.25 7.08594 53.25 7.07812V5.94141H51.2051C50.166 5.94141 49.6465 6.3418 49.6465 7.14258ZM55.8867 5.46094V4.85742C55.8867 4.7793 55.9258 4.74023 56.0039 4.74023H60.8555C60.9336 4.74023 60.9727 4.7793 60.9727 4.85742V5.46094C60.9727 5.53906 60.9336 5.57812 60.8555 5.57812H56.0039C55.9258 5.57812 55.8867 5.53906 55.8867 5.46094ZM62.5312 8.88281V3.05859C62.5312 2.25781 62.7715 1.61914 63.252 1.14258C63.7324 0.662109 64.4121 0.421875 65.291 0.421875C65.9316 0.421875 66.4531 0.517578 66.8555 0.708984C66.9336 0.748047 66.9727 0.798828 66.9727 0.861328V1.45312C66.9727 1.55078 66.9336 1.58203 66.8555 1.54688C66.457 1.35547 65.9766 1.25977 65.4141 1.25977C64.2148 1.25977 63.6152 1.85938 63.6152 3.05859V3.48047H66.0586C66.1367 3.48047 66.1777 3.51953 66.1816 3.59766V4.20117C66.1816 4.2793 66.1406 4.31836 66.0586 4.31836H63.6152V8.88281C63.6152 8.96094 63.5742 9 63.4922 9H62.6543C62.5723 9 62.5312 8.96094 62.5312 8.88281ZM70.5996 9.19336C69.7285 9.19336 69.0059 8.89844 68.4316 8.30859C67.8613 7.71484 67.5762 6.87305 67.5762 5.7832C67.5762 4.68945 67.8613 3.85352 68.4316 3.27539C69.0059 2.69336 69.7539 2.40234 70.6758 2.40234C71.6016 2.40234 72.3555 2.69922 72.9375 3.29297C73.5234 3.88281 73.8164 4.66602 73.8164 5.64258V5.94141C73.8164 6.10156 73.7363 6.18164 73.5762 6.18164H68.666C68.7324 6.9082 68.9473 7.45117 69.3105 7.81055C69.6738 8.16992 70.1348 8.34961 70.6934 8.34961C71.5762 8.34961 72.2168 7.99023 72.6152 7.27148C72.6621 7.19336 72.7109 7.1543 72.7617 7.1543H73.5176C73.6191 7.1543 73.6582 7.20117 73.6348 7.29492C73.4746 7.87305 73.1465 8.33398 72.6504 8.67773C72.1543 9.02148 71.4707 9.19336 70.5996 9.19336ZM68.666 5.33789H72.7383C72.7031 4.70898 72.4883 4.20312 72.0938 3.82031C71.6992 3.43359 71.2285 3.24023 70.6816 3.24023C70.1387 3.24023 69.6836 3.41797 69.3164 3.77344C68.9492 4.12891 68.7324 4.65039 68.666 5.33789ZM75.6211 0.837891C75.6211 0.677734 75.7012 0.597656 75.8613 0.597656H76.6406C76.7305 0.597656 76.793 0.617188 76.8281 0.65625C76.8633 0.691406 76.8809 0.751953 76.8809 0.837891V1.61719C76.8809 1.70703 76.8633 1.76953 76.8281 1.80469C76.793 1.83984 76.7305 1.85742 76.6406 1.85742H75.8613C75.7754 1.85742 75.7129 1.83984 75.6738 1.80469C75.6387 1.76953 75.6211 1.70703 75.6211 1.61719V0.837891ZM75.709 8.88281V2.70117C75.709 2.61914 75.748 2.57812 75.8262 2.57812H76.6641C76.7461 2.57812 76.7871 2.61914 76.7871 2.70117V8.88281C76.7871 8.96094 76.7461 9 76.6641 9H75.8262C75.748 9 75.709 8.96094 75.709 8.88281ZM79.166 8.88281V2.70117C79.166 2.61914 79.2051 2.57812 79.2832 2.57812H79.9453C80.0234 2.57812 80.0664 2.61914 80.0742 2.70117L80.1855 3.7207L80.2793 3.58594C80.3223 3.53125 80.4199 3.42969 80.5723 3.28125C80.7285 3.13281 80.9004 3.00586 81.0879 2.90039C81.2793 2.79102 81.5293 2.69141 81.8379 2.60156C82.1504 2.50781 82.4785 2.46094 82.8223 2.46094H83.3027C83.3848 2.46094 83.4258 2.5 83.4258 2.57812V3.29883C83.4258 3.38086 83.3848 3.42188 83.3027 3.42188H82.9453C82.5547 3.42188 82.1953 3.47266 81.8672 3.57422C81.5391 3.67188 81.2773 3.79102 81.082 3.93164C80.6875 4.2207 80.4316 4.47852 80.3145 4.70508L80.2441 4.85742V8.88281C80.2441 8.96094 80.2051 9 80.127 9H79.2832C79.2051 9 79.166 8.96094 79.166 8.88281ZM85.0078 8.63672C84.5586 8.26953 84.334 7.77148 84.334 7.14258C84.334 6.50977 84.5645 6.01172 85.0254 5.64844C85.4902 5.28125 86.1387 5.09766 86.9707 5.09766H89.0156V5.03906C89.0156 3.83984 88.4141 3.24023 87.2109 3.24023C86.8359 3.24023 86.5156 3.33008 86.25 3.50977C85.9883 3.68945 85.8086 3.91992 85.7109 4.20117C85.6875 4.2793 85.6406 4.31836 85.5703 4.31836H84.8145C84.7246 4.31836 84.6836 4.2793 84.6914 4.20117C84.7539 3.6582 85.0117 3.22266 85.4648 2.89453C85.918 2.56641 86.5 2.40234 87.2109 2.40234C88.1406 2.40234 88.8535 2.63281 89.3496 3.09375C89.8457 3.55078 90.0938 4.19922 90.0938 5.03906V8.88281C90.0938 8.96094 90.0527 9 89.9707 9H89.3145C89.2363 9 89.1914 8.96094 89.1797 8.88281L89.0742 8.2207C89.0273 8.29492 88.9238 8.39844 88.7637 8.53125C88.6035 8.66016 88.4434 8.76562 88.2832 8.84766C87.8613 9.07031 87.3848 9.18164 86.8535 9.18164C86.0762 9.18164 85.4609 9 85.0078 8.63672ZM85.4121 7.14258C85.4121 7.5332 85.541 7.83008 85.7988 8.0332C86.0605 8.23633 86.4316 8.33789 86.9121 8.33789C87.1699 8.33789 87.418 8.29492 87.6562 8.20898C87.8984 8.11914 88.0957 8.01562 88.248 7.89844C88.4043 7.77734 88.543 7.6543 88.6641 7.5293C88.7852 7.4043 88.873 7.30078 88.9277 7.21875C88.9863 7.13281 89.0156 7.08594 89.0156 7.07812V5.94141H86.9707C85.9316 5.94141 85.4121 6.3418 85.4121 7.14258ZM96.8789 0.527344L97.0605 0.298828C97.127 0.220703 97.2031 0.181641 97.2891 0.181641H97.8398C97.9531 0.181641 97.9863 0.220703 97.9395 0.298828L97.7695 0.5625C97.4414 1.19922 97.1934 1.77148 97.0254 2.2793C96.8574 2.7832 96.7188 3.32227 96.6094 3.89648C96.5039 4.4668 96.4512 5.0293 96.4512 5.58398C96.4512 6.13477 96.502 6.69141 96.6035 7.25391C96.709 7.81641 96.834 8.30469 96.9785 8.71875C97.2871 9.60156 97.5547 10.2305 97.7812 10.6055L97.9395 10.8574C97.9824 10.9395 97.9492 10.9805 97.8398 10.9805H97.2891C97.2031 10.9805 97.1309 10.9453 97.0723 10.875C97.0176 10.8086 96.9512 10.7207 96.873 10.6113C96.7988 10.5059 96.666 10.2754 96.4746 9.91992C96.2832 9.56445 96.1113 9.19531 95.959 8.8125C95.8066 8.42578 95.6699 7.93945 95.5488 7.35352C95.4277 6.76367 95.3672 6.17383 95.3672 5.58398C95.3672 4.99023 95.4258 4.4043 95.543 3.82617C95.6602 3.24414 95.8008 2.75 95.9648 2.34375C96.2734 1.57031 96.5781 0.964844 96.8789 0.527344ZM98.5781 6.86133C98.5625 6.76367 98.6035 6.7168 98.7012 6.7207H99.457C99.5273 6.7207 99.5762 6.75977 99.6035 6.83789C99.7559 7.30273 100.027 7.66992 100.418 7.93945C100.809 8.20508 101.316 8.33789 101.941 8.33789C102.566 8.33789 103.064 8.20508 103.436 7.93945C103.807 7.66992 103.992 7.28125 103.992 6.77344C103.992 6.26562 103.816 5.87109 103.465 5.58984C103.113 5.30469 102.609 5.16211 101.953 5.16211H100.875C100.797 5.16211 100.756 5.12109 100.752 5.03906V4.44141C100.752 4.36328 100.793 4.32227 100.875 4.31836H101.895C102.469 4.31836 102.922 4.1875 103.254 3.92578C103.586 3.66016 103.752 3.2832 103.752 2.79492C103.752 2.30664 103.574 1.92969 103.219 1.66406C102.863 1.39453 102.4 1.25977 101.83 1.25977C101.264 1.25977 100.789 1.39648 100.406 1.66992C100.027 1.93945 99.7637 2.30273 99.6152 2.75977C99.5918 2.83789 99.543 2.87891 99.4688 2.88281H98.7129C98.6152 2.88281 98.5742 2.83398 98.5898 2.73633C98.7422 2.02539 99.1016 1.46289 99.668 1.04883C100.238 0.630859 100.971 0.421875 101.865 0.421875C102.764 0.421875 103.482 0.634766 104.021 1.06055C104.561 1.48242 104.83 2.06836 104.83 2.81836C104.83 3.27539 104.705 3.67188 104.455 4.00781C104.209 4.34375 103.83 4.56836 103.318 4.68164C103.893 4.79492 104.328 5.03906 104.625 5.41406C104.922 5.78906 105.07 6.24414 105.07 6.7793C105.07 7.5332 104.793 8.12305 104.238 8.54883C103.684 8.9707 102.93 9.18164 101.977 9.18164C101.027 9.18164 100.262 8.97461 99.6797 8.56055C99.0977 8.14648 98.7305 7.58008 98.5781 6.86133ZM105.955 2.50781C105.912 2.44531 105.92 2.38867 105.979 2.33789L107.766 0.960938C107.781 0.953125 107.824 0.919922 107.895 0.861328C107.969 0.798828 108.018 0.759766 108.041 0.744141L108.158 0.685547C108.283 0.626953 108.393 0.597656 108.486 0.597656H108.967C109.045 0.597656 109.084 0.638672 109.084 0.720703V8.88281C109.084 8.96094 109.045 9 108.967 9H108.123C108.045 9 108.006 8.96094 108.006 8.88281V1.98047L106.494 3.02344C106.42 3.07031 106.363 3.0625 106.324 3L105.955 2.50781ZM110.549 8.88281L114.088 0.720703C114.127 0.638672 114.188 0.597656 114.27 0.597656H115.107C115.189 0.597656 115.211 0.638672 115.172 0.720703L111.627 8.88281C111.588 8.96094 111.529 9 111.451 9H110.607C110.529 9 110.51 8.96094 110.549 8.88281ZM115.6 2.50781C115.557 2.44531 115.564 2.38867 115.623 2.33789L117.41 0.960938C117.426 0.953125 117.469 0.919922 117.539 0.861328C117.613 0.798828 117.662 0.759766 117.686 0.744141L117.803 0.685547C117.928 0.626953 118.037 0.597656 118.131 0.597656H118.611C118.689 0.597656 118.729 0.638672 118.729 0.720703V8.88281C118.729 8.96094 118.689 9 118.611 9H117.768C117.689 9 117.65 8.96094 117.65 8.88281V1.98047L116.139 3.02344C116.064 3.07031 116.008 3.0625 115.969 3L115.6 2.50781ZM126.656 8.0332C126.02 8.79883 125.178 9.18164 124.131 9.18164C123.084 9.18164 122.242 8.79883 121.605 8.0332C120.969 7.26367 120.65 6.1875 120.65 4.80469C120.65 3.41797 120.969 2.3418 121.605 1.57617C122.242 0.806641 123.084 0.421875 124.131 0.421875C125.178 0.421875 126.02 0.806641 126.656 1.57617C127.293 2.3418 127.611 3.41797 127.611 4.80469C127.611 6.1875 127.293 7.26367 126.656 8.0332ZM125.854 2.15625C125.408 1.55859 124.834 1.25977 124.131 1.25977C123.428 1.25977 122.852 1.55859 122.402 2.15625C121.953 2.75 121.729 3.63086 121.729 4.79883C121.729 5.9668 121.953 6.84961 122.402 7.44727C122.852 8.04102 123.428 8.33789 124.131 8.33789C124.834 8.33789 125.408 8.04102 125.854 7.44727C126.303 6.84961 126.527 5.9668 126.527 4.79883C126.527 3.63086 126.303 2.75 125.854 2.15625ZM128.596 8.88281L132.135 0.720703C132.174 0.638672 132.234 0.597656 132.316 0.597656H133.154C133.236 0.597656 133.258 0.638672 133.219 0.720703L129.674 8.88281C129.635 8.96094 129.576 9 129.498 9H128.654C128.576 9 128.557 8.96094 128.596 8.88281ZM133.98 2.73633C134.133 2.01758 134.498 1.45312 135.076 1.04297C135.658 0.628906 136.418 0.421875 137.355 0.421875C138.297 0.421875 139.039 0.640625 139.582 1.07812C140.129 1.51172 140.402 2.13281 140.402 2.94141C140.402 3.48438 140.227 3.96875 139.875 4.39453C139.527 4.81641 139.105 5.16406 138.609 5.4375L137.109 6.22266C135.902 6.82812 135.279 7.47461 135.24 8.16211H140.326C140.404 8.16211 140.445 8.20117 140.449 8.2793V8.88281C140.449 8.96094 140.408 9 140.326 9H134.279C134.201 9 134.162 8.96094 134.162 8.88281V8.33789C134.162 7.92383 134.256 7.54492 134.443 7.20117C134.631 6.85742 134.877 6.56641 135.182 6.32812C135.486 6.08594 135.822 5.85938 136.189 5.64844L137.291 5.03906C137.658 4.84766 137.994 4.65234 138.299 4.45312C138.604 4.25391 138.85 4.01953 139.037 3.75C139.225 3.48047 139.318 3.19141 139.318 2.88281C139.318 2.35547 139.139 1.95312 138.779 1.67578C138.42 1.39844 137.934 1.25977 137.32 1.25977C136.707 1.25977 136.205 1.39453 135.814 1.66406C135.424 1.92969 135.152 2.29492 135 2.75977C134.977 2.83789 134.928 2.87891 134.854 2.88281H134.098C134.004 2.88281 133.965 2.83398 133.98 2.73633ZM147.773 8.0332C147.137 8.79883 146.295 9.18164 145.248 9.18164C144.201 9.18164 143.359 8.79883 142.723 8.0332C142.086 7.26367 141.768 6.1875 141.768 4.80469C141.768 3.41797 142.086 2.3418 142.723 1.57617C143.359 0.806641 144.201 0.421875 145.248 0.421875C146.295 0.421875 147.137 0.806641 147.773 1.57617C148.41 2.3418 148.729 3.41797 148.729 4.80469C148.729 6.1875 148.41 7.26367 147.773 8.0332ZM146.971 2.15625C146.525 1.55859 145.951 1.25977 145.248 1.25977C144.545 1.25977 143.969 1.55859 143.52 2.15625C143.07 2.75 142.846 3.63086 142.846 4.79883C142.846 5.9668 143.07 6.84961 143.52 7.44727C143.969 8.04102 144.545 8.33789 145.248 8.33789C145.951 8.33789 146.525 8.04102 146.971 7.44727C147.42 6.84961 147.645 5.9668 147.645 4.79883C147.645 3.63086 147.42 2.75 146.971 2.15625ZM149.766 2.73633C149.918 2.01758 150.283 1.45312 150.861 1.04297C151.443 0.628906 152.203 0.421875 153.141 0.421875C154.082 0.421875 154.824 0.640625 155.367 1.07812C155.914 1.51172 156.188 2.13281 156.188 2.94141C156.188 3.48438 156.012 3.96875 155.66 4.39453C155.312 4.81641 154.891 5.16406 154.395 5.4375L152.895 6.22266C151.688 6.82812 151.064 7.47461 151.025 8.16211H156.111C156.189 8.16211 156.23 8.20117 156.234 8.2793V8.88281C156.234 8.96094 156.193 9 156.111 9H150.064C149.986 9 149.947 8.96094 149.947 8.88281V8.33789C149.947 7.92383 150.041 7.54492 150.229 7.20117C150.416 6.85742 150.662 6.56641 150.967 6.32812C151.271 6.08594 151.607 5.85938 151.975 5.64844L153.076 5.03906C153.443 4.84766 153.779 4.65234 154.084 4.45312C154.389 4.25391 154.635 4.01953 154.822 3.75C155.01 3.48047 155.104 3.19141 155.104 2.88281C155.104 2.35547 154.924 1.95312 154.564 1.67578C154.205 1.39844 153.719 1.25977 153.105 1.25977C152.492 1.25977 151.99 1.39453 151.6 1.66406C151.209 1.92969 150.938 2.29492 150.785 2.75977C150.762 2.83789 150.713 2.87891 150.639 2.88281H149.883C149.789 2.88281 149.75 2.83398 149.766 2.73633ZM157.324 2.73633C157.477 2.01758 157.842 1.45312 158.42 1.04297C159.002 0.628906 159.762 0.421875 160.699 0.421875C161.641 0.421875 162.383 0.640625 162.926 1.07812C163.473 1.51172 163.746 2.13281 163.746 2.94141C163.746 3.48438 163.57 3.96875 163.219 4.39453C162.871 4.81641 162.449 5.16406 161.953 5.4375L160.453 6.22266C159.246 6.82812 158.623 7.47461 158.584 8.16211H163.67C163.748 8.16211 163.789 8.20117 163.793 8.2793V8.88281C163.793 8.96094 163.752 9 163.67 9H157.623C157.545 9 157.506 8.96094 157.506 8.88281V8.33789C157.506 7.92383 157.6 7.54492 157.787 7.20117C157.975 6.85742 158.221 6.56641 158.525 6.32812C158.83 6.08594 159.166 5.85938 159.533 5.64844L160.635 5.03906C161.002 4.84766 161.338 4.65234 161.643 4.45312C161.947 4.25391 162.193 4.01953 162.381 3.75C162.568 3.48047 162.662 3.19141 162.662 2.88281C162.662 2.35547 162.482 1.95312 162.123 1.67578C161.764 1.39844 161.277 1.25977 160.664 1.25977C160.051 1.25977 159.549 1.39453 159.158 1.66406C158.768 1.92969 158.496 2.29492 158.344 2.75977C158.32 2.83789 158.271 2.87891 158.197 2.88281H157.441C157.348 2.88281 157.309 2.83398 157.324 2.73633ZM164.414 10.8574L164.584 10.582C164.646 10.4727 164.764 10.2285 164.936 9.84961C165.107 9.47461 165.258 9.09375 165.387 8.70703C165.516 8.31641 165.633 7.83594 165.738 7.26562C165.848 6.69531 165.902 6.13477 165.902 5.58398C165.902 5.0293 165.85 4.4707 165.744 3.9082C165.643 3.3418 165.52 2.85156 165.375 2.4375C165.078 1.58984 164.811 0.960938 164.572 0.550781L164.414 0.298828C164.367 0.220703 164.398 0.181641 164.508 0.181641H165.064C165.15 0.181641 165.221 0.216797 165.275 0.287109C165.334 0.353516 165.4 0.441406 165.475 0.550781C165.553 0.65625 165.688 0.886719 165.879 1.24219C166.07 1.59766 166.242 1.96875 166.395 2.35547C166.547 2.73828 166.682 3.22461 166.799 3.81445C166.92 4.40039 166.98 4.99023 166.98 5.58398C166.98 6.17383 166.922 6.75977 166.805 7.3418C166.691 7.91992 166.553 8.41406 166.389 8.82422C166.072 9.61328 165.766 10.2168 165.469 10.6348L165.293 10.8574C165.227 10.9395 165.15 10.9805 165.064 10.9805H164.508C164.402 10.9805 164.371 10.9395 164.414 10.8574ZM172.582 8.63672C172.133 8.26953 171.908 7.77148 171.908 7.14258C171.908 6.50977 172.139 6.01172 172.6 5.64844C173.064 5.28125 173.713 5.09766 174.545 5.09766H176.59V5.03906C176.59 3.83984 175.988 3.24023 174.785 3.24023C174.41 3.24023 174.09 3.33008 173.824 3.50977C173.562 3.68945 173.383 3.91992 173.285 4.20117C173.262 4.2793 173.215 4.31836 173.145 4.31836H172.389C172.299 4.31836 172.258 4.2793 172.266 4.20117C172.328 3.6582 172.586 3.22266 173.039 2.89453C173.492 2.56641 174.074 2.40234 174.785 2.40234C175.715 2.40234 176.428 2.63281 176.924 3.09375C177.42 3.55078 177.668 4.19922 177.668 5.03906V8.88281C177.668 8.96094 177.627 9 177.545 9H176.889C176.811 9 176.766 8.96094 176.754 8.88281L176.648 8.2207C176.602 8.29492 176.498 8.39844 176.338 8.53125C176.178 8.66016 176.018 8.76562 175.857 8.84766C175.436 9.07031 174.959 9.18164 174.428 9.18164C173.65 9.18164 173.035 9 172.582 8.63672ZM172.986 7.14258C172.986 7.5332 173.115 7.83008 173.373 8.0332C173.635 8.23633 174.006 8.33789 174.486 8.33789C174.744 8.33789 174.992 8.29492 175.23 8.20898C175.473 8.11914 175.67 8.01562 175.822 7.89844C175.979 7.77734 176.117 7.6543 176.238 7.5293C176.359 7.4043 176.447 7.30078 176.502 7.21875C176.561 7.13281 176.59 7.08594 176.59 7.07812V5.94141H174.545C173.506 5.94141 172.986 6.3418 172.986 7.14258ZM173.262 0.193359C173.207 0.115234 173.229 0.0742188 173.326 0.0703125H174.404C174.482 0.0703125 174.543 0.111328 174.586 0.193359L175.365 1.75195C175.404 1.83008 175.383 1.86914 175.301 1.86914H174.703C174.648 1.86914 174.588 1.83008 174.521 1.75195L173.262 0.193359ZM179.355 7.2832C179.352 7.26367 179.35 7.24805 179.35 7.23633C179.35 7.17383 179.393 7.14258 179.479 7.14258H180.234C180.281 7.14258 180.33 7.18164 180.381 7.25977C180.779 7.97852 181.479 8.33789 182.479 8.33789C183.045 8.33789 183.467 8.25391 183.744 8.08594C184.021 7.91797 184.16 7.70703 184.16 7.45312C184.16 7.19922 184.064 6.99219 183.873 6.83203C183.686 6.66797 183.361 6.53125 182.9 6.42188L181.4 6.05859C180.119 5.74609 179.479 5.12695 179.479 4.20117C179.479 3.67383 179.717 3.24219 180.193 2.90625C180.67 2.57031 181.324 2.40234 182.156 2.40234C182.988 2.40234 183.66 2.57422 184.172 2.91797C184.684 3.26172 185.02 3.7207 185.18 4.29492C185.203 4.39258 185.162 4.44141 185.057 4.44141H184.301C184.254 4.44141 184.207 4.40039 184.16 4.31836C183.762 3.59961 183.102 3.24023 182.18 3.24023C181.645 3.24023 181.24 3.32617 180.967 3.49805C180.693 3.66992 180.557 3.88281 180.557 4.13672C180.557 4.38672 180.65 4.5918 180.838 4.75195C181.029 4.91211 181.355 5.04883 181.816 5.16211L183.316 5.51953C184.598 5.82422 185.238 6.44531 185.238 7.38281C185.238 7.91016 184.996 8.3418 184.512 8.67773C184.027 9.01367 183.35 9.18164 182.479 9.18164C181.607 9.18164 180.908 9.01172 180.381 8.67188C179.857 8.33203 179.516 7.86914 179.355 7.2832ZM196.16 8.0332C195.523 8.79883 194.682 9.18164 193.635 9.18164C192.588 9.18164 191.746 8.79883 191.109 8.0332C190.473 7.26367 190.154 6.1875 190.154 4.80469C190.154 3.41797 190.473 2.3418 191.109 1.57617C191.746 0.806641 192.588 0.421875 193.635 0.421875C194.682 0.421875 195.523 0.806641 196.16 1.57617C196.797 2.3418 197.115 3.41797 197.115 4.80469C197.115 6.1875 196.797 7.26367 196.16 8.0332ZM195.357 2.15625C194.912 1.55859 194.338 1.25977 193.635 1.25977C192.932 1.25977 192.355 1.55859 191.906 2.15625C191.457 2.75 191.232 3.63086 191.232 4.79883C191.232 5.9668 191.457 6.84961 191.906 7.44727C192.355 8.04102 192.932 8.33789 193.635 8.33789C194.338 8.33789 194.912 8.04102 195.357 7.44727C195.807 6.84961 196.031 5.9668 196.031 4.79883C196.031 3.63086 195.807 2.75 195.357 2.15625ZM198.557 6.7793C198.557 6.26758 198.713 5.82031 199.025 5.4375C199.338 5.05078 199.762 4.79883 200.297 4.68164C199.785 4.56836 199.406 4.34375 199.16 4.00781C198.918 3.67188 198.797 3.27539 198.797 2.81836C198.797 2.05664 199.061 1.4668 199.588 1.04883C200.115 0.630859 200.871 0.421875 201.855 0.421875C202.84 0.421875 203.596 0.632812 204.123 1.05469C204.65 1.47266 204.914 2.06055 204.914 2.81836C204.914 3.27539 204.791 3.67188 204.545 4.00781C204.303 4.34375 203.926 4.56836 203.414 4.68164C203.949 4.80273 204.373 5.05469 204.686 5.4375C204.998 5.82031 205.154 6.26758 205.154 6.7793C205.154 7.54102 204.873 8.13281 204.311 8.55469C203.748 8.97266 202.93 9.18164 201.855 9.18164C200.785 9.18164 199.967 8.97266 199.4 8.55469C198.838 8.13281 198.557 7.54102 198.557 6.7793ZM201.855 5.16211C201.121 5.16211 200.566 5.30273 200.191 5.58398C199.82 5.86133 199.635 6.25781 199.635 6.77344C199.635 7.28906 199.824 7.67969 200.203 7.94531C200.586 8.20703 201.137 8.33789 201.855 8.33789C202.574 8.33789 203.123 8.20703 203.502 7.94531C203.885 7.67969 204.076 7.28906 204.076 6.77344C204.076 6.25781 203.889 5.86133 203.514 5.58398C203.143 5.30273 202.59 5.16211 201.855 5.16211ZM201.855 1.25977C201.223 1.25977 200.734 1.39453 200.391 1.66406C200.047 1.92969 199.875 2.30859 199.875 2.80078C199.875 3.29297 200.047 3.66992 200.391 3.93164C200.734 4.18945 201.223 4.31836 201.855 4.31836C202.488 4.31836 202.977 4.18945 203.32 3.93164C203.664 3.66992 203.836 3.29297 203.836 2.80078C203.836 2.30859 203.664 1.92969 203.32 1.66406C202.977 1.39453 202.488 1.25977 201.855 1.25977ZM206.713 8.03906C206.713 7.87891 206.793 7.79883 206.953 7.79883H207.732C207.822 7.79883 207.885 7.81836 207.92 7.85742C207.955 7.89258 207.973 7.95312 207.973 8.03906V8.81836C207.973 8.9082 207.955 8.9707 207.92 9.00586C207.885 9.04102 207.822 9.05859 207.732 9.05859H206.953C206.867 9.05859 206.805 9.04102 206.766 9.00586C206.73 8.9707 206.713 8.9082 206.713 8.81836V8.03906ZM206.713 2.75977C206.713 2.59961 206.793 2.51953 206.953 2.51953H207.732C207.822 2.51953 207.885 2.53906 207.92 2.57812C207.955 2.61328 207.973 2.67383 207.973 2.75977V3.53906C207.973 3.62891 207.955 3.69141 207.92 3.72656C207.885 3.76172 207.822 3.7793 207.732 3.7793H206.953C206.867 3.7793 206.805 3.76172 206.766 3.72656C206.73 3.69141 206.713 3.62891 206.713 3.53906V2.75977ZM209.426 6.86133C209.41 6.76367 209.451 6.7168 209.549 6.7207H210.305C210.375 6.7207 210.424 6.75977 210.451 6.83789C210.604 7.30273 210.875 7.66992 211.266 7.93945C211.656 8.20508 212.164 8.33789 212.789 8.33789C213.414 8.33789 213.912 8.20508 214.283 7.93945C214.654 7.66992 214.84 7.28125 214.84 6.77344C214.84 6.26562 214.664 5.87109 214.312 5.58984C213.961 5.30469 213.457 5.16211 212.801 5.16211H211.723C211.645 5.16211 211.604 5.12109 211.6 5.03906V4.44141C211.6 4.36328 211.641 4.32227 211.723 4.31836H212.742C213.316 4.31836 213.77 4.1875 214.102 3.92578C214.434 3.66016 214.6 3.2832 214.6 2.79492C214.6 2.30664 214.422 1.92969 214.066 1.66406C213.711 1.39453 213.248 1.25977 212.678 1.25977C212.111 1.25977 211.637 1.39648 211.254 1.66992C210.875 1.93945 210.611 2.30273 210.463 2.75977C210.439 2.83789 210.391 2.87891 210.316 2.88281H209.561C209.463 2.88281 209.422 2.83398 209.438 2.73633C209.59 2.02539 209.949 1.46289 210.516 1.04883C211.086 0.630859 211.818 0.421875 212.713 0.421875C213.611 0.421875 214.33 0.634766 214.869 1.06055C215.408 1.48242 215.678 2.06836 215.678 2.81836C215.678 3.27539 215.553 3.67188 215.303 4.00781C215.057 4.34375 214.678 4.56836 214.166 4.68164C214.74 4.79492 215.176 5.03906 215.473 5.41406C215.77 5.78906 215.918 6.24414 215.918 6.7793C215.918 7.5332 215.641 8.12305 215.086 8.54883C214.531 8.9707 213.777 9.18164 212.824 9.18164C211.875 9.18164 211.109 8.97461 210.527 8.56055C209.945 8.14648 209.578 7.58008 209.426 6.86133ZM223.371 8.0332C222.734 8.79883 221.893 9.18164 220.846 9.18164C219.799 9.18164 218.957 8.79883 218.32 8.0332C217.684 7.26367 217.365 6.1875 217.365 4.80469C217.365 3.41797 217.684 2.3418 218.32 1.57617C218.957 0.806641 219.799 0.421875 220.846 0.421875C221.893 0.421875 222.734 0.806641 223.371 1.57617C224.008 2.3418 224.326 3.41797 224.326 4.80469C224.326 6.1875 224.008 7.26367 223.371 8.0332ZM222.568 2.15625C222.123 1.55859 221.549 1.25977 220.846 1.25977C220.143 1.25977 219.566 1.55859 219.117 2.15625C218.668 2.75 218.443 3.63086 218.443 4.79883C218.443 5.9668 218.668 6.84961 219.117 7.44727C219.566 8.04102 220.143 8.33789 220.846 8.33789C221.549 8.33789 222.123 8.04102 222.568 7.44727C223.018 6.84961 223.242 5.9668 223.242 4.79883C223.242 3.63086 223.018 2.75 222.568 2.15625Z" fill="#131730"/>
</svg>
