<svg width="308" height="43" viewBox="0 0 308 43" fill="none" xmlns="http://www.w3.org/2000/svg">
<rect x="1" y="0.5" width="306" height="42" rx="21" fill="white"/>
<rect x="1" y="0.5" width="306" height="42" rx="21" stroke="#131730"/>
<path d="M18.7068 27V15.8H23.2668C24.4615 15.8 25.5068 16.04 26.4028 16.52C27.3095 16.9893 28.0135 17.6453 28.5148 18.488C29.0161 19.3307 29.2668 20.3013 29.2668 21.4C29.2668 22.4987 29.0161 23.4693 28.5148 24.312C28.0135 25.1547 27.3095 25.816 26.4028 26.296C25.5068 26.7653 24.4615 27 23.2668 27H18.7068ZM19.8908 25.976H23.2028C24.1948 25.976 25.0535 25.784 25.7788 25.4C26.5148 25.0053 27.0855 24.4667 27.4908 23.784C27.8961 23.0907 28.0988 22.296 28.0988 21.4C28.0988 20.4933 27.8961 19.6987 27.4908 19.016C27.0855 18.3333 26.5148 17.8 25.7788 17.416C25.0535 17.0213 24.1948 16.824 23.2028 16.824H19.8908V25.976ZM31.6856 27V18.6H32.8216V27H31.6856ZM32.2616 16.744C32.0269 16.744 31.8296 16.664 31.6696 16.504C31.5096 16.344 31.4296 16.152 31.4296 15.928C31.4296 15.704 31.5096 15.5173 31.6696 15.368C31.8296 15.208 32.0269 15.128 32.2616 15.128C32.4962 15.128 32.6936 15.2027 32.8536 15.352C33.0136 15.5013 33.0936 15.688 33.0936 15.912C33.0936 16.1467 33.0136 16.344 32.8536 16.504C32.7042 16.664 32.5069 16.744 32.2616 16.744ZM39.5664 30.184C38.7984 30.184 38.0624 30.072 37.3584 29.848C36.6544 29.624 36.0838 29.304 35.6464 28.888L36.2224 28.024C36.6171 28.376 37.1024 28.6533 37.6784 28.856C38.2651 29.0693 38.8838 29.176 39.5344 29.176C40.6011 29.176 41.3851 28.9253 41.8864 28.424C42.3878 27.9333 42.6384 27.1653 42.6384 26.12V24.024L42.7984 22.584L42.6864 21.144V18.6H43.7744V25.976C43.7744 27.4267 43.4171 28.488 42.7024 29.16C41.9984 29.8427 40.9531 30.184 39.5664 30.184ZM39.3584 26.68C38.5584 26.68 37.8384 26.5093 37.1984 26.168C36.5584 25.816 36.0518 25.3307 35.6784 24.712C35.3158 24.0933 35.1344 23.384 35.1344 22.584C35.1344 21.784 35.3158 21.08 35.6784 20.472C36.0518 19.8533 36.5584 19.3733 37.1984 19.032C37.8384 18.6907 38.5584 18.52 39.3584 18.52C40.1051 18.52 40.7771 18.6747 41.3744 18.984C41.9718 19.2933 42.4464 19.752 42.7984 20.36C43.1504 20.968 43.3264 21.7093 43.3264 22.584C43.3264 23.4587 43.1504 24.2 42.7984 24.808C42.4464 25.416 41.9718 25.88 41.3744 26.2C40.7771 26.52 40.1051 26.68 39.3584 26.68ZM39.4704 25.672C40.0891 25.672 40.6384 25.544 41.1184 25.288C41.5984 25.0213 41.9771 24.6587 42.2544 24.2C42.5318 23.7307 42.6704 23.192 42.6704 22.584C42.6704 21.976 42.5318 21.4427 42.2544 20.984C41.9771 20.5253 41.5984 20.168 41.1184 19.912C40.6384 19.6453 40.0891 19.512 39.4704 19.512C38.8624 19.512 38.3131 19.6453 37.8224 19.912C37.3424 20.168 36.9638 20.5253 36.6864 20.984C36.4198 21.4427 36.2864 21.976 36.2864 22.584C36.2864 23.192 36.4198 23.7307 36.6864 24.2C36.9638 24.6587 37.3424 25.0213 37.8224 25.288C38.3131 25.544 38.8624 25.672 39.4704 25.672ZM46.9356 27V18.6H48.0716V27H46.9356ZM47.5116 16.744C47.2769 16.744 47.0796 16.664 46.9196 16.504C46.7596 16.344 46.6796 16.152 46.6796 15.928C46.6796 15.704 46.7596 15.5173 46.9196 15.368C47.0796 15.208 47.2769 15.128 47.5116 15.128C47.7462 15.128 47.9436 15.2027 48.1036 15.352C48.2636 15.5013 48.3436 15.688 48.3436 15.912C48.3436 16.1467 48.2636 16.344 48.1036 16.504C47.9542 16.664 47.7569 16.744 47.5116 16.744ZM53.8884 27.08C53.0991 27.08 52.4911 26.8667 52.0644 26.44C51.6378 26.0133 51.4244 25.4107 51.4244 24.632V16.744H52.5604V24.568C52.5604 25.0587 52.6831 25.4373 52.9284 25.704C53.1844 25.9707 53.5471 26.104 54.0164 26.104C54.5178 26.104 54.9338 25.96 55.2644 25.672L55.6644 26.488C55.4404 26.6907 55.1684 26.84 54.8484 26.936C54.5391 27.032 54.2191 27.08 53.8884 27.08ZM49.9204 19.544V18.6H55.1204V19.544H49.9204ZM61.0036 27.08C60.1289 27.08 59.3609 26.8987 58.6996 26.536C58.0382 26.1627 57.5209 25.656 57.1476 25.016C56.7742 24.3653 56.5876 23.624 56.5876 22.792C56.5876 21.96 56.7636 21.224 57.1156 20.584C57.4782 19.944 57.9689 19.4427 58.5876 19.08C59.2169 18.7067 59.9209 18.52 60.6996 18.52C61.4889 18.52 62.1876 18.7013 62.7956 19.064C63.4142 19.416 63.8996 19.9173 64.2516 20.568C64.6036 21.208 64.7796 21.9493 64.7796 22.792C64.7796 22.8453 64.7742 22.904 64.7636 22.968C64.7636 23.0213 64.7636 23.08 64.7636 23.144H57.4516V22.296H64.1556L63.7076 22.632C63.7076 22.024 63.5742 21.4853 63.3076 21.016C63.0516 20.536 62.6996 20.1627 62.2516 19.896C61.8036 19.6293 61.2862 19.496 60.6996 19.496C60.1236 19.496 59.6062 19.6293 59.1476 19.896C58.6889 20.1627 58.3316 20.536 58.0756 21.016C57.8196 21.496 57.6916 22.0453 57.6916 22.664V22.84C57.6916 23.48 57.8302 24.0453 58.1076 24.536C58.3956 25.016 58.7902 25.3947 59.2916 25.672C59.8036 25.9387 60.3849 26.072 61.0356 26.072C61.5476 26.072 62.0222 25.9813 62.4596 25.8C62.9076 25.6187 63.2916 25.3413 63.6116 24.968L64.2516 25.704C63.8782 26.152 63.4089 26.4933 62.8436 26.728C62.2889 26.9627 61.6756 27.08 61.0036 27.08ZM74.7033 27.08C73.8926 27.08 73.162 26.8987 72.5113 26.536C71.8713 26.1627 71.3646 25.656 70.9913 25.016C70.618 24.3653 70.4313 23.624 70.4313 22.792C70.4313 21.9493 70.618 21.208 70.9913 20.568C71.3646 19.928 71.8713 19.4267 72.5113 19.064C73.1513 18.7013 73.882 18.52 74.7033 18.52C75.5353 18.52 76.2713 18.7013 76.9113 19.064C77.562 19.4267 78.0686 19.928 78.4313 20.568C78.8046 21.208 78.9913 21.9493 78.9913 22.792C78.9913 23.624 78.8046 24.3653 78.4313 25.016C78.0686 25.656 77.562 26.1627 76.9113 26.536C76.2606 26.8987 75.5246 27.08 74.7033 27.08ZM74.7033 26.072C75.3113 26.072 75.85 25.9387 76.3193 25.672C76.7886 25.3947 77.1566 25.0107 77.4233 24.52C77.7006 24.0187 77.8393 23.4427 77.8393 22.792C77.8393 22.1307 77.7006 21.5547 77.4233 21.064C77.1566 20.5733 76.7886 20.1947 76.3193 19.928C75.85 19.6507 75.3166 19.512 74.7193 19.512C74.122 19.512 73.5886 19.6507 73.1193 19.928C72.65 20.1947 72.2766 20.5733 71.9993 21.064C71.722 21.5547 71.5833 22.1307 71.5833 22.792C71.5833 23.4427 71.722 24.0187 71.9993 24.52C72.2766 25.0107 72.65 25.3947 73.1193 25.672C73.5886 25.9387 74.1166 26.072 74.7033 26.072ZM85.4981 27V18.6H86.6341V27H85.4981ZM86.0741 16.744C85.8394 16.744 85.6421 16.664 85.4821 16.504C85.3221 16.344 85.2421 16.152 85.2421 15.928C85.2421 15.704 85.3221 15.5173 85.4821 15.368C85.6421 15.208 85.8394 15.128 86.0741 15.128C86.3087 15.128 86.5061 15.2027 86.6661 15.352C86.8261 15.5013 86.9061 15.688 86.9061 15.912C86.9061 16.1467 86.8261 16.344 86.6661 16.504C86.5167 16.664 86.3194 16.744 86.0741 16.744ZM92.4509 27.08C91.6616 27.08 91.0536 26.8667 90.6269 26.44C90.2003 26.0133 89.9869 25.4107 89.9869 24.632V16.744H91.1229V24.568C91.1229 25.0587 91.2456 25.4373 91.4909 25.704C91.7469 25.9707 92.1096 26.104 92.5789 26.104C93.0803 26.104 93.4963 25.96 93.8269 25.672L94.2269 26.488C94.0029 26.6907 93.7309 26.84 93.4109 26.936C93.1016 27.032 92.7816 27.08 92.4509 27.08ZM88.4829 19.544V18.6H93.6829V19.544H88.4829ZM99.5661 27.08C98.6914 27.08 97.9234 26.8987 97.2621 26.536C96.6007 26.1627 96.0834 25.656 95.7101 25.016C95.3367 24.3653 95.1501 23.624 95.1501 22.792C95.1501 21.96 95.3261 21.224 95.6781 20.584C96.0407 19.944 96.5314 19.4427 97.1501 19.08C97.7794 18.7067 98.4834 18.52 99.2621 18.52C100.051 18.52 100.75 18.7013 101.358 19.064C101.977 19.416 102.462 19.9173 102.814 20.568C103.166 21.208 103.342 21.9493 103.342 22.792C103.342 22.8453 103.337 22.904 103.326 22.968C103.326 23.0213 103.326 23.08 103.326 23.144H96.0141V22.296H102.718L102.27 22.632C102.27 22.024 102.137 21.4853 101.87 21.016C101.614 20.536 101.262 20.1627 100.814 19.896C100.366 19.6293 99.8487 19.496 99.2621 19.496C98.6861 19.496 98.1687 19.6293 97.7101 19.896C97.2514 20.1627 96.8941 20.536 96.6381 21.016C96.3821 21.496 96.2541 22.0453 96.2541 22.664V22.84C96.2541 23.48 96.3927 24.0453 96.6701 24.536C96.9581 25.016 97.3527 25.3947 97.8541 25.672C98.3661 25.9387 98.9474 26.072 99.5981 26.072C100.11 26.072 100.585 25.9813 101.022 25.8C101.47 25.6187 101.854 25.3413 102.174 24.968L102.814 25.704C102.441 26.152 101.971 26.4933 101.406 26.728C100.851 26.9627 100.238 27.08 99.5661 27.08ZM116.15 18.52C116.833 18.52 117.425 18.6533 117.926 18.92C118.438 19.176 118.833 19.5707 119.11 20.104C119.398 20.6373 119.542 21.3093 119.542 22.12V27H118.406V22.232C118.406 21.3467 118.193 20.68 117.766 20.232C117.35 19.7733 116.758 19.544 115.99 19.544C115.414 19.544 114.913 19.6667 114.486 19.912C114.07 20.1467 113.745 20.4933 113.51 20.952C113.286 21.4 113.174 21.944 113.174 22.584V27H112.038V22.232C112.038 21.3467 111.825 20.68 111.398 20.232C110.972 19.7733 110.374 19.544 109.606 19.544C109.041 19.544 108.545 19.6667 108.118 19.912C107.692 20.1467 107.361 20.4933 107.126 20.952C106.902 21.4 106.79 21.944 106.79 22.584V27H105.654V18.6H106.742V20.872L106.566 20.472C106.822 19.864 107.233 19.3893 107.798 19.048C108.374 18.696 109.052 18.52 109.83 18.52C110.652 18.52 111.35 18.728 111.926 19.144C112.502 19.5493 112.876 20.1627 113.046 20.984L112.598 20.808C112.844 20.1253 113.276 19.576 113.894 19.16C114.524 18.7333 115.276 18.52 116.15 18.52ZM130.155 27.08C129.355 27.08 128.635 26.8987 127.995 26.536C127.365 26.1733 126.869 25.672 126.507 25.032C126.144 24.392 125.963 23.6453 125.963 22.792C125.963 21.9493 126.144 21.208 126.507 20.568C126.869 19.9173 127.365 19.416 127.995 19.064C128.635 18.7013 129.355 18.52 130.155 18.52C130.901 18.52 131.563 18.6853 132.139 19.016C132.725 19.3467 133.189 19.832 133.531 20.472C133.872 21.1013 134.043 21.8747 134.043 22.792C134.043 23.7093 133.867 24.488 133.515 25.128C133.173 25.7573 132.709 26.2427 132.123 26.584C131.547 26.9147 130.891 27.08 130.155 27.08ZM130.235 26.072C130.832 26.072 131.365 25.9387 131.835 25.672C132.315 25.3947 132.688 25.0107 132.955 24.52C133.232 24.0187 133.371 23.4427 133.371 22.792C133.371 22.1413 133.232 21.5707 132.955 21.08C132.688 20.5893 132.315 20.2053 131.835 19.928C131.365 19.6507 130.832 19.512 130.235 19.512C129.648 19.512 129.12 19.6507 128.651 19.928C128.181 20.2053 127.808 20.5893 127.531 21.08C127.253 21.5707 127.115 22.1413 127.115 22.792C127.115 23.4427 127.253 24.0187 127.531 24.52C127.808 25.0107 128.181 25.3947 128.651 25.672C129.12 25.9387 129.648 26.072 130.235 26.072ZM133.355 30.104V24.504L133.515 22.808L133.403 21.128V18.6H134.491V30.104H133.355ZM141.126 27.08C140.412 27.08 139.788 26.9467 139.254 26.68C138.721 26.4133 138.305 26.0133 138.006 25.48C137.718 24.9467 137.574 24.28 137.574 23.48V18.6H138.71V23.352C138.71 24.248 138.929 24.9253 139.366 25.384C139.814 25.832 140.438 26.056 141.238 26.056C141.825 26.056 142.332 25.9387 142.758 25.704C143.196 25.4587 143.526 25.1067 143.75 24.648C143.985 24.1893 144.102 23.64 144.102 23V18.6H145.238V27H144.15V24.696L144.326 25.112C144.06 25.7307 143.644 26.216 143.078 26.568C142.524 26.9093 141.873 27.08 141.126 27.08ZM151.972 27.08C151.098 27.08 150.33 26.8987 149.668 26.536C149.007 26.1627 148.49 25.656 148.116 25.016C147.743 24.3653 147.556 23.624 147.556 22.792C147.556 21.96 147.732 21.224 148.084 20.584C148.447 19.944 148.938 19.4427 149.556 19.08C150.186 18.7067 150.89 18.52 151.668 18.52C152.458 18.52 153.156 18.7013 153.764 19.064C154.383 19.416 154.868 19.9173 155.22 20.568C155.572 21.208 155.748 21.9493 155.748 22.792C155.748 22.8453 155.743 22.904 155.732 22.968C155.732 23.0213 155.732 23.08 155.732 23.144H148.42V22.296H155.124L154.676 22.632C154.676 22.024 154.543 21.4853 154.276 21.016C154.02 20.536 153.668 20.1627 153.22 19.896C152.772 19.6293 152.255 19.496 151.668 19.496C151.092 19.496 150.575 19.6293 150.116 19.896C149.658 20.1627 149.3 20.536 149.044 21.016C148.788 21.496 148.66 22.0453 148.66 22.664V22.84C148.66 23.48 148.799 24.0453 149.076 24.536C149.364 25.016 149.759 25.3947 150.26 25.672C150.772 25.9387 151.354 26.072 152.004 26.072C152.516 26.072 152.991 25.9813 153.428 25.8C153.876 25.6187 154.26 25.3413 154.58 24.968L155.22 25.704C154.847 26.152 154.378 26.4933 153.812 26.728C153.258 26.9627 152.644 27.08 151.972 27.08ZM165.592 27.08C164.792 27.08 164.072 26.8987 163.432 26.536C162.803 26.1733 162.307 25.672 161.944 25.032C161.581 24.3813 161.4 23.6347 161.4 22.792C161.4 21.9387 161.581 21.192 161.944 20.552C162.307 19.912 162.803 19.416 163.432 19.064C164.072 18.7013 164.792 18.52 165.592 18.52C166.328 18.52 166.984 18.6853 167.56 19.016C168.147 19.3467 168.611 19.832 168.952 20.472C169.304 21.1013 169.48 21.8747 169.48 22.792C169.48 23.6987 169.309 24.472 168.968 25.112C168.627 25.752 168.163 26.2427 167.576 26.584C167 26.9147 166.339 27.08 165.592 27.08ZM165.672 26.072C166.269 26.072 166.803 25.9387 167.272 25.672C167.752 25.3947 168.125 25.0107 168.392 24.52C168.669 24.0187 168.808 23.4427 168.808 22.792C168.808 22.1307 168.669 21.5547 168.392 21.064C168.125 20.5733 167.752 20.1947 167.272 19.928C166.803 19.6507 166.269 19.512 165.672 19.512C165.085 19.512 164.557 19.6507 164.088 19.928C163.619 20.1947 163.245 20.5733 162.968 21.064C162.691 21.5547 162.552 22.1307 162.552 22.792C162.552 23.4427 162.691 24.0187 162.968 24.52C163.245 25.0107 163.619 25.3947 164.088 25.672C164.557 25.9387 165.085 26.072 165.672 26.072ZM168.84 27V24.472L168.952 22.776L168.792 21.08V15.128H169.928V27H168.84ZM176.66 27.08C175.785 27.08 175.017 26.8987 174.356 26.536C173.694 26.1627 173.177 25.656 172.804 25.016C172.43 24.3653 172.244 23.624 172.244 22.792C172.244 21.96 172.42 21.224 172.772 20.584C173.134 19.944 173.625 19.4427 174.244 19.08C174.873 18.7067 175.577 18.52 176.356 18.52C177.145 18.52 177.844 18.7013 178.452 19.064C179.07 19.416 179.556 19.9173 179.908 20.568C180.26 21.208 180.436 21.9493 180.436 22.792C180.436 22.8453 180.43 22.904 180.42 22.968C180.42 23.0213 180.42 23.08 180.42 23.144H173.108V22.296H179.812L179.364 22.632C179.364 22.024 179.23 21.4853 178.964 21.016C178.708 20.536 178.356 20.1627 177.908 19.896C177.46 19.6293 176.942 19.496 176.356 19.496C175.78 19.496 175.262 19.6293 174.804 19.896C174.345 20.1627 173.988 20.536 173.732 21.016C173.476 21.496 173.348 22.0453 173.348 22.664V22.84C173.348 23.48 173.486 24.0453 173.764 24.536C174.052 25.016 174.446 25.3947 174.948 25.672C175.46 25.9387 176.041 26.072 176.692 26.072C177.204 26.072 177.678 25.9813 178.116 25.8C178.564 25.6187 178.948 25.3413 179.268 24.968L179.908 25.704C179.534 26.152 179.065 26.4933 178.5 26.728C177.945 26.9627 177.332 27.08 176.66 27.08ZM185.004 27.08C184.311 27.08 183.655 26.984 183.036 26.792C182.417 26.5893 181.932 26.3387 181.58 26.04L182.092 25.144C182.433 25.4 182.871 25.624 183.404 25.816C183.937 25.9973 184.497 26.088 185.084 26.088C185.884 26.088 186.46 25.9653 186.812 25.72C187.164 25.464 187.34 25.128 187.34 24.712C187.34 24.4027 187.239 24.1627 187.036 23.992C186.844 23.8107 186.588 23.6773 186.268 23.592C185.948 23.496 185.591 23.416 185.196 23.352C184.801 23.288 184.407 23.2133 184.012 23.128C183.628 23.0427 183.276 22.92 182.956 22.76C182.636 22.5893 182.375 22.36 182.172 22.072C181.98 21.784 181.884 21.4 181.884 20.92C181.884 20.4613 182.012 20.0507 182.268 19.688C182.524 19.3253 182.897 19.0427 183.388 18.84C183.889 18.6267 184.497 18.52 185.212 18.52C185.756 18.52 186.3 18.5947 186.844 18.744C187.388 18.8827 187.836 19.0693 188.188 19.304L187.692 20.216C187.319 19.96 186.919 19.7787 186.492 19.672C186.065 19.5547 185.639 19.496 185.212 19.496C184.455 19.496 183.895 19.6293 183.532 19.896C183.18 20.152 183.004 20.4827 183.004 20.888C183.004 21.208 183.1 21.4587 183.292 21.64C183.495 21.8213 183.756 21.9653 184.076 22.072C184.407 22.168 184.764 22.248 185.148 22.312C185.543 22.376 185.932 22.456 186.316 22.552C186.711 22.6373 187.068 22.76 187.388 22.92C187.719 23.0693 187.98 23.288 188.172 23.576C188.375 23.8533 188.476 24.2213 188.476 24.68C188.476 25.1707 188.337 25.5973 188.06 25.96C187.793 26.312 187.399 26.5893 186.876 26.792C186.364 26.984 185.74 27.08 185.004 27.08ZM194.129 27.08C193.254 27.08 192.486 26.8987 191.825 26.536C191.163 26.1627 190.646 25.656 190.273 25.016C189.899 24.3653 189.713 23.624 189.713 22.792C189.713 21.96 189.889 21.224 190.241 20.584C190.603 19.944 191.094 19.4427 191.713 19.08C192.342 18.7067 193.046 18.52 193.825 18.52C194.614 18.52 195.313 18.7013 195.921 19.064C196.539 19.416 197.025 19.9173 197.377 20.568C197.729 21.208 197.905 21.9493 197.905 22.792C197.905 22.8453 197.899 22.904 197.889 22.968C197.889 23.0213 197.889 23.08 197.889 23.144H190.577V22.296H197.281L196.833 22.632C196.833 22.024 196.699 21.4853 196.433 21.016C196.177 20.536 195.825 20.1627 195.377 19.896C194.929 19.6293 194.411 19.496 193.825 19.496C193.249 19.496 192.731 19.6293 192.273 19.896C191.814 20.1627 191.457 20.536 191.201 21.016C190.945 21.496 190.817 22.0453 190.817 22.664V22.84C190.817 23.48 190.955 24.0453 191.233 24.536C191.521 25.016 191.915 25.3947 192.417 25.672C192.929 25.9387 193.51 26.072 194.161 26.072C194.673 26.072 195.147 25.9813 195.585 25.8C196.033 25.6187 196.417 25.3413 196.737 24.968L197.377 25.704C197.003 26.152 196.534 26.4933 195.969 26.728C195.414 26.9627 194.801 27.08 194.129 27.08ZM198.969 30.184C198.627 30.184 198.302 30.136 197.993 30.04C197.673 29.9547 197.406 29.8213 197.193 29.64L197.593 28.776C197.934 29.064 198.371 29.208 198.905 29.208C199.353 29.208 199.694 29.0747 199.929 28.808C200.174 28.5413 200.297 28.1467 200.297 27.624V18.6H201.433V27.624C201.433 28.4027 201.219 29.0213 200.793 29.48C200.377 29.9493 199.769 30.184 198.969 30.184ZM200.873 16.744C200.638 16.744 200.441 16.664 200.281 16.504C200.121 16.344 200.041 16.152 200.041 15.928C200.041 15.704 200.121 15.5173 200.281 15.368C200.441 15.208 200.638 15.128 200.873 15.128C201.107 15.128 201.305 15.2027 201.465 15.352C201.625 15.5013 201.705 15.688 201.705 15.912C201.705 16.1467 201.625 16.344 201.465 16.504C201.315 16.664 201.118 16.744 200.873 16.744ZM209.871 27V25.144L209.823 24.84V21.736C209.823 21.0213 209.621 20.472 209.215 20.088C208.821 19.704 208.229 19.512 207.439 19.512C206.895 19.512 206.378 19.6027 205.887 19.784C205.397 19.9653 204.981 20.2053 204.639 20.504L204.127 19.656C204.554 19.2933 205.066 19.016 205.663 18.824C206.261 18.6213 206.89 18.52 207.551 18.52C208.639 18.52 209.477 18.792 210.063 19.336C210.661 19.8693 210.959 20.6853 210.959 21.784V27H209.871ZM206.975 27.08C206.346 27.08 205.797 26.9787 205.327 26.776C204.869 26.5627 204.517 26.2747 204.271 25.912C204.026 25.5387 203.903 25.112 203.903 24.632C203.903 24.1947 204.005 23.8 204.207 23.448C204.421 23.0853 204.762 22.7973 205.231 22.584C205.711 22.36 206.351 22.248 207.151 22.248H210.047V23.096H207.183C206.373 23.096 205.807 23.24 205.487 23.528C205.178 23.816 205.023 24.1733 205.023 24.6C205.023 25.08 205.21 25.464 205.583 25.752C205.957 26.04 206.479 26.184 207.151 26.184C207.791 26.184 208.341 26.04 208.799 25.752C209.269 25.4533 209.61 25.0267 209.823 24.472L210.079 25.256C209.866 25.8107 209.493 26.2533 208.959 26.584C208.437 26.9147 207.775 27.08 206.975 27.08ZM223.496 27V25.144L223.448 24.84V21.736C223.448 21.0213 223.246 20.472 222.84 20.088C222.446 19.704 221.854 19.512 221.064 19.512C220.52 19.512 220.003 19.6027 219.512 19.784C219.022 19.9653 218.606 20.2053 218.264 20.504L217.752 19.656C218.179 19.2933 218.691 19.016 219.288 18.824C219.886 18.6213 220.515 18.52 221.176 18.52C222.264 18.52 223.102 18.792 223.688 19.336C224.286 19.8693 224.584 20.6853 224.584 21.784V27H223.496ZM220.6 27.08C219.971 27.08 219.422 26.9787 218.952 26.776C218.494 26.5627 218.142 26.2747 217.896 25.912C217.651 25.5387 217.528 25.112 217.528 24.632C217.528 24.1947 217.63 23.8 217.832 23.448C218.046 23.0853 218.387 22.7973 218.856 22.584C219.336 22.36 219.976 22.248 220.776 22.248H223.672V23.096H220.808C219.998 23.096 219.432 23.24 219.112 23.528C218.803 23.816 218.648 24.1733 218.648 24.6C218.648 25.08 218.835 25.464 219.208 25.752C219.582 26.04 220.104 26.184 220.776 26.184C221.416 26.184 221.966 26.04 222.424 25.752C222.894 25.4533 223.235 25.0267 223.448 24.472L223.704 25.256C223.491 25.8107 223.118 26.2533 222.584 26.584C222.062 26.9147 221.4 27.08 220.6 27.08ZM231.014 27.08C230.214 27.08 229.494 26.8987 228.854 26.536C228.225 26.1733 227.729 25.672 227.366 25.032C227.003 24.3813 226.822 23.6347 226.822 22.792C226.822 21.9387 227.003 21.192 227.366 20.552C227.729 19.912 228.225 19.416 228.854 19.064C229.494 18.7013 230.214 18.52 231.014 18.52C231.75 18.52 232.406 18.6853 232.982 19.016C233.569 19.3467 234.033 19.832 234.374 20.472C234.726 21.1013 234.902 21.8747 234.902 22.792C234.902 23.6987 234.731 24.472 234.39 25.112C234.049 25.752 233.585 26.2427 232.998 26.584C232.422 26.9147 231.761 27.08 231.014 27.08ZM231.094 26.072C231.691 26.072 232.225 25.9387 232.694 25.672C233.174 25.3947 233.547 25.0107 233.814 24.52C234.091 24.0187 234.23 23.4427 234.23 22.792C234.23 22.1307 234.091 21.5547 233.814 21.064C233.547 20.5733 233.174 20.1947 232.694 19.928C232.225 19.6507 231.691 19.512 231.094 19.512C230.507 19.512 229.979 19.6507 229.51 19.928C229.041 20.1947 228.667 20.5733 228.39 21.064C228.113 21.5547 227.974 22.1307 227.974 22.792C227.974 23.4427 228.113 24.0187 228.39 24.52C228.667 25.0107 229.041 25.3947 229.51 25.672C229.979 25.9387 230.507 26.072 231.094 26.072ZM234.262 27V24.472L234.374 22.776L234.214 21.08V15.128H235.35V27H234.262ZM238.514 27V18.6H239.65V27H238.514ZM239.09 16.744C238.855 16.744 238.658 16.664 238.498 16.504C238.338 16.344 238.258 16.152 238.258 15.928C238.258 15.704 238.338 15.5173 238.498 15.368C238.658 15.208 238.855 15.128 239.09 15.128C239.324 15.128 239.522 15.2027 239.682 15.352C239.842 15.5013 239.922 15.688 239.922 15.912C239.922 16.1467 239.842 16.344 239.682 16.504C239.532 16.664 239.335 16.744 239.09 16.744ZM246.299 27.08C245.467 27.08 244.72 26.8987 244.059 26.536C243.408 26.1627 242.896 25.656 242.523 25.016C242.149 24.3653 241.963 23.624 241.963 22.792C241.963 21.9493 242.149 21.208 242.523 20.568C242.896 19.928 243.408 19.4267 244.059 19.064C244.72 18.7013 245.467 18.52 246.299 18.52C247.013 18.52 247.659 18.6587 248.235 18.936C248.811 19.2133 249.264 19.6293 249.595 20.184L248.747 20.76C248.459 20.3333 248.101 20.0187 247.675 19.816C247.248 19.6133 246.784 19.512 246.283 19.512C245.685 19.512 245.147 19.6507 244.667 19.928C244.187 20.1947 243.808 20.5733 243.531 21.064C243.253 21.5547 243.115 22.1307 243.115 22.792C243.115 23.4533 243.253 24.0293 243.531 24.52C243.808 25.0107 244.187 25.3947 244.667 25.672C245.147 25.9387 245.685 26.072 246.283 26.072C246.784 26.072 247.248 25.9707 247.675 25.768C248.101 25.5653 248.459 25.256 248.747 24.84L249.595 25.416C249.264 25.96 248.811 26.376 248.235 26.664C247.659 26.9413 247.013 27.08 246.299 27.08ZM251.701 27V18.6H252.837V27H251.701ZM252.277 16.744C252.043 16.744 251.845 16.664 251.685 16.504C251.525 16.344 251.445 16.152 251.445 15.928C251.445 15.704 251.525 15.5173 251.685 15.368C251.845 15.208 252.043 15.128 252.277 15.128C252.512 15.128 252.709 15.2027 252.869 15.352C253.029 15.5013 253.109 15.688 253.109 15.912C253.109 16.1467 253.029 16.344 252.869 16.504C252.72 16.664 252.523 16.744 252.277 16.744ZM259.422 27.08C258.611 27.08 257.881 26.8987 257.23 26.536C256.59 26.1627 256.083 25.656 255.71 25.016C255.337 24.3653 255.15 23.624 255.15 22.792C255.15 21.9493 255.337 21.208 255.71 20.568C256.083 19.928 256.59 19.4267 257.23 19.064C257.87 18.7013 258.601 18.52 259.422 18.52C260.254 18.52 260.99 18.7013 261.63 19.064C262.281 19.4267 262.787 19.928 263.15 20.568C263.523 21.208 263.71 21.9493 263.71 22.792C263.71 23.624 263.523 24.3653 263.15 25.016C262.787 25.656 262.281 26.1627 261.63 26.536C260.979 26.8987 260.243 27.08 259.422 27.08ZM259.422 26.072C260.03 26.072 260.569 25.9387 261.038 25.672C261.507 25.3947 261.875 25.0107 262.142 24.52C262.419 24.0187 262.558 23.4427 262.558 22.792C262.558 22.1307 262.419 21.5547 262.142 21.064C261.875 20.5733 261.507 20.1947 261.038 19.928C260.569 19.6507 260.035 19.512 259.438 19.512C258.841 19.512 258.307 19.6507 257.838 19.928C257.369 20.1947 256.995 20.5733 256.718 21.064C256.441 21.5547 256.302 22.1307 256.302 22.792C256.302 23.4427 256.441 24.0187 256.718 24.52C256.995 25.0107 257.369 25.3947 257.838 25.672C258.307 25.9387 258.835 26.072 259.422 26.072ZM270.317 18.52C271 18.52 271.597 18.6533 272.109 18.92C272.632 19.176 273.037 19.5707 273.325 20.104C273.624 20.6373 273.773 21.3093 273.773 22.12V27H272.637V22.232C272.637 21.3467 272.413 20.68 271.965 20.232C271.528 19.7733 270.909 19.544 270.109 19.544C269.512 19.544 268.989 19.6667 268.541 19.912C268.104 20.1467 267.763 20.4933 267.517 20.952C267.283 21.4 267.165 21.944 267.165 22.584V27H266.029V18.6H267.117V20.904L266.941 20.472C267.208 19.864 267.635 19.3893 268.221 19.048C268.808 18.696 269.507 18.52 270.317 18.52ZM282.106 27V25.144L282.058 24.84V21.736C282.058 21.0213 281.855 20.472 281.45 20.088C281.055 19.704 280.463 19.512 279.674 19.512C279.13 19.512 278.612 19.6027 278.122 19.784C277.631 19.9653 277.215 20.2053 276.874 20.504L276.362 19.656C276.788 19.2933 277.3 19.016 277.898 18.824C278.495 18.6213 279.124 18.52 279.786 18.52C280.874 18.52 281.711 18.792 282.298 19.336C282.895 19.8693 283.194 20.6853 283.194 21.784V27H282.106ZM279.21 27.08C278.58 27.08 278.031 26.9787 277.562 26.776C277.103 26.5627 276.751 26.2747 276.506 25.912C276.26 25.5387 276.138 25.112 276.138 24.632C276.138 24.1947 276.239 23.8 276.442 23.448C276.655 23.0853 276.996 22.7973 277.466 22.584C277.946 22.36 278.586 22.248 279.386 22.248H282.282V23.096H279.418C278.607 23.096 278.042 23.24 277.722 23.528C277.412 23.816 277.258 24.1733 277.258 24.6C277.258 25.08 277.444 25.464 277.818 25.752C278.191 26.04 278.714 26.184 279.386 26.184C280.026 26.184 280.575 26.04 281.034 25.752C281.503 25.4533 281.844 25.0267 282.058 24.472L282.314 25.256C282.1 25.8107 281.727 26.2533 281.194 26.584C280.671 26.9147 280.01 27.08 279.21 27.08ZM286.279 27V18.6H287.367V20.888L287.255 20.488C287.49 19.848 287.885 19.3627 288.439 19.032C288.994 18.6907 289.682 18.52 290.503 18.52V19.624C290.461 19.624 290.418 19.624 290.375 19.624C290.333 19.6133 290.29 19.608 290.247 19.608C289.362 19.608 288.669 19.88 288.167 20.424C287.666 20.9573 287.415 21.72 287.415 22.712V27H286.279Z" fill="#8A8A8A"/>
</svg>
