<svg width="156" height="64" viewBox="0 0 156 64" fill="none" xmlns="http://www.w3.org/2000/svg">
<g filter="url(#filter0_d_1035_1069)">
<rect x="8" y="8" width="140" height="48" rx="24" fill="#F55B64"/>
<path d="M25.0986 34.7393C25.0986 34.6338 25.1602 34.5811 25.2832 34.5811H26.417C26.5225 34.5811 26.5957 34.6396 26.6367 34.7568C27.1406 36.2568 28.4238 37.0068 30.4863 37.0068C31.5645 37.0068 32.3877 36.8164 32.9561 36.4355C33.5303 36.0488 33.8174 35.5713 33.8174 35.0029C33.8174 34.4346 33.6357 33.9775 33.2725 33.6318C32.915 33.2803 32.3525 32.9961 31.585 32.7793L28.4297 31.8828C26.3906 31.2969 25.3711 30.1865 25.3711 28.5518C25.3711 27.5439 25.7988 26.7236 26.6543 26.0908C27.5156 25.4521 28.667 25.1328 30.1084 25.1328C31.5498 25.1328 32.7129 25.4434 33.5977 26.0645C34.4883 26.6797 35.0479 27.5264 35.2764 28.6045C35.2998 28.751 35.2383 28.8242 35.0918 28.8242H33.958C33.8525 28.8242 33.7793 28.7627 33.7383 28.6396C33.2344 27.1396 32.0361 26.3896 30.1436 26.3896C29.1475 26.3896 28.3711 26.583 27.8145 26.9697C27.2637 27.3506 26.9883 27.8311 26.9883 28.4111C26.9883 28.9854 27.167 29.4395 27.5244 29.7734C27.8877 30.1074 28.459 30.3887 29.2383 30.6172L32.3936 31.5225C34.4209 32.0967 35.4346 33.207 35.4346 34.8535C35.4346 35.873 34.9922 36.6992 34.1074 37.332C33.2285 37.959 32.0215 38.2725 30.4863 38.2725C28.9512 38.2725 27.7266 37.9648 26.8125 37.3496C26.3555 37.0449 25.9541 36.6582 25.6084 36.1895C25.2686 35.7148 25.0986 35.2314 25.0986 34.7393ZM38.4229 37.4551C37.749 36.9043 37.4121 36.1572 37.4121 35.2139C37.4121 34.2646 37.7578 33.5176 38.4492 32.9727C39.1465 32.4219 40.1191 32.1465 41.3672 32.1465H44.4346V32.0586C44.4346 30.2598 43.5322 29.3604 41.7275 29.3604C41.165 29.3604 40.6846 29.4951 40.2861 29.7646C39.8936 30.0342 39.624 30.3799 39.4775 30.8018C39.4424 30.9189 39.3721 30.9775 39.2666 30.9775H38.1328C37.998 30.9775 37.9365 30.9189 37.9482 30.8018C38.042 29.9873 38.4287 29.334 39.1084 28.8418C39.7881 28.3496 40.6611 28.1035 41.7275 28.1035C43.1221 28.1035 44.1914 28.4492 44.9355 29.1406C45.6797 29.8262 46.0518 30.7988 46.0518 32.0586V37.8242C46.0518 37.9414 45.9902 38 45.8672 38H44.8828C44.7656 38 44.6982 37.9414 44.6807 37.8242L44.5225 36.8311C44.4521 36.9424 44.2969 37.0977 44.0566 37.2969C43.8164 37.4902 43.5762 37.6484 43.3359 37.7715C42.7031 38.1055 41.9883 38.2725 41.1914 38.2725C40.0254 38.2725 39.1025 38 38.4229 37.4551ZM39.0293 35.2139C39.0293 35.7998 39.2227 36.2451 39.6094 36.5498C40.002 36.8545 40.5586 37.0068 41.2793 37.0068C41.666 37.0068 42.0381 36.9424 42.3955 36.8135C42.7588 36.6787 43.0547 36.5234 43.2832 36.3477C43.5176 36.166 43.7256 35.9814 43.9072 35.7939C44.0889 35.6064 44.2207 35.4512 44.3027 35.3281C44.3906 35.1992 44.4346 35.1289 44.4346 35.1172V33.4121H41.3672C39.8086 33.4121 39.0293 34.0127 39.0293 35.2139ZM49.4707 37.8242V25.5811C49.4707 25.458 49.5293 25.3965 49.6465 25.3965H50.9121C51.0293 25.3965 51.0879 25.458 51.0879 25.5811V37.8242C51.0879 37.9414 51.0293 38 50.9121 38H49.6465C49.5293 38 49.4707 37.9414 49.4707 37.8242ZM53.4434 28.5518C53.4258 28.5166 53.4199 28.4873 53.4258 28.4639C53.4258 28.3994 53.4814 28.3672 53.5928 28.3672H54.7969C54.9141 28.3672 55.0049 28.4287 55.0693 28.5518L58.4004 36.1982L61.7314 28.5518C61.79 28.4346 61.8779 28.373 61.9951 28.3672H63.208C63.3193 28.3672 63.375 28.3994 63.375 28.4639C63.375 28.4873 63.3662 28.5166 63.3486 28.5518L59.4814 37.4639C59.3115 37.8213 59.0713 38 58.7607 38H58.04C57.7295 38 57.4893 37.8213 57.3193 37.4639L53.4434 28.5518ZM65.7393 37.4551C65.0654 36.9043 64.7285 36.1572 64.7285 35.2139C64.7285 34.2646 65.0742 33.5176 65.7656 32.9727C66.4629 32.4219 67.4355 32.1465 68.6836 32.1465H71.751V32.0586C71.751 30.2598 70.8486 29.3604 69.0439 29.3604C68.4814 29.3604 68.001 29.4951 67.6025 29.7646C67.21 30.0342 66.9404 30.3799 66.7939 30.8018C66.7588 30.9189 66.6885 30.9775 66.583 30.9775H65.4492C65.3145 30.9775 65.2529 30.9189 65.2646 30.8018C65.3584 29.9873 65.7451 29.334 66.4248 28.8418C67.1045 28.3496 67.9775 28.1035 69.0439 28.1035C70.4385 28.1035 71.5078 28.4492 72.252 29.1406C72.9961 29.8262 73.3682 30.7988 73.3682 32.0586V37.8242C73.3682 37.9414 73.3066 38 73.1836 38H72.1992C72.082 38 72.0146 37.9414 71.9971 37.8242L71.8389 36.8311C71.7686 36.9424 71.6133 37.0977 71.373 37.2969C71.1328 37.4902 70.8926 37.6484 70.6523 37.7715C70.0195 38.1055 69.3047 38.2725 68.5078 38.2725C67.3418 38.2725 66.4189 38 65.7393 37.4551ZM66.3457 35.2139C66.3457 35.7998 66.5391 36.2451 66.9258 36.5498C67.3184 36.8545 67.875 37.0068 68.5957 37.0068C68.9824 37.0068 69.3545 36.9424 69.7119 36.8135C70.0752 36.6787 70.3711 36.5234 70.5996 36.3477C70.834 36.166 71.042 35.9814 71.2236 35.7939C71.4053 35.6064 71.5371 35.4512 71.6191 35.3281C71.707 35.1992 71.751 35.1289 71.751 35.1172V33.4121H68.6836C67.125 33.4121 66.3457 34.0127 66.3457 35.2139ZM76.7871 37.8242V28.5518C76.7871 28.4287 76.8457 28.3672 76.9629 28.3672H77.9561C78.0732 28.3672 78.1377 28.4287 78.1494 28.5518L78.3164 30.0811L78.457 29.8789C78.5215 29.7969 78.668 29.6445 78.8965 29.4219C79.1309 29.1992 79.3887 29.0088 79.6699 28.8506C79.957 28.6865 80.332 28.5371 80.7949 28.4023C81.2637 28.2617 81.7559 28.1914 82.2715 28.1914H82.9922C83.1152 28.1914 83.1768 28.25 83.1768 28.3672V29.4482C83.1768 29.5713 83.1152 29.6328 82.9922 29.6328H82.4561C81.8701 29.6328 81.3311 29.709 80.8389 29.8613C80.3467 30.0078 79.9541 30.1865 79.6611 30.3975C79.0693 30.8311 78.6855 31.2178 78.5098 31.5576L78.4043 31.7861V37.8242C78.4043 37.9414 78.3457 38 78.2285 38H76.9629C76.8457 38 76.7871 37.9414 76.7871 37.8242ZM90.4717 25.7568C90.4717 25.5166 90.5918 25.3965 90.832 25.3965H92.001C92.1357 25.3965 92.2295 25.4258 92.2822 25.4844C92.335 25.5371 92.3613 25.6279 92.3613 25.7568V26.9258C92.3613 27.0605 92.335 27.1543 92.2822 27.207C92.2295 27.2598 92.1357 27.2861 92.001 27.2861H90.832C90.7031 27.2861 90.6094 27.2598 90.5508 27.207C90.498 27.1543 90.4717 27.0605 90.4717 26.9258V25.7568ZM90.6035 37.8242V28.5518C90.6035 28.4287 90.6621 28.3672 90.7793 28.3672H92.0361C92.1592 28.3672 92.2207 28.4287 92.2207 28.5518V37.8242C92.2207 37.9414 92.1592 38 92.0361 38H90.7793C90.6621 38 90.6035 37.9414 90.6035 37.8242ZM95.7891 34.3086V25.5811C95.7891 25.458 95.8477 25.3965 95.9648 25.3965H97.2305C97.3477 25.3965 97.4062 25.458 97.4062 25.5811V28.3672H101.08C101.197 28.3672 101.256 28.4287 101.256 28.5518V29.4482C101.256 29.5713 101.197 29.6328 101.08 29.6328H97.4062V34.3086C97.4062 35.1992 97.6113 35.873 98.0215 36.3301C98.4375 36.7812 99.0117 37.0068 99.7441 37.0068C100.389 37.0068 100.966 36.9189 101.476 36.7432L101.73 36.6465C101.848 36.5996 101.906 36.6494 101.906 36.7959V37.6748C101.906 37.7744 101.848 37.8535 101.73 37.9121C101.127 38.1523 100.406 38.2725 99.5684 38.2725C98.4141 38.2725 97.4941 37.9092 96.8086 37.1826C96.1289 36.4561 95.7891 35.498 95.7891 34.3086ZM108.076 38.29C106.77 38.29 105.686 37.8477 104.824 36.9629C103.969 36.0723 103.541 34.8096 103.541 33.1748C103.541 31.5342 103.969 30.2803 104.824 29.4131C105.686 28.54 106.808 28.1035 108.19 28.1035C109.579 28.1035 110.71 28.5488 111.583 29.4395C112.462 30.3242 112.901 31.499 112.901 32.9639V33.4121C112.901 33.6523 112.781 33.7725 112.541 33.7725H105.176C105.275 34.8623 105.598 35.6768 106.143 36.2158C106.688 36.7549 107.379 37.0244 108.217 37.0244C109.541 37.0244 110.502 36.4854 111.1 35.4072C111.17 35.29 111.243 35.2314 111.319 35.2314H112.453C112.605 35.2314 112.664 35.3018 112.629 35.4424C112.389 36.3096 111.896 37.001 111.152 37.5166C110.408 38.0322 109.383 38.29 108.076 38.29ZM105.176 32.5068H111.284C111.231 31.5635 110.909 30.8047 110.317 30.2305C109.726 29.6504 109.02 29.3604 108.199 29.3604C107.385 29.3604 106.702 29.627 106.151 30.1602C105.601 30.6934 105.275 31.4756 105.176 32.5068ZM115.793 37.8242V28.5518C115.793 28.4287 115.852 28.3672 115.969 28.3672H116.962C117.079 28.3672 117.144 28.4287 117.155 28.5518L117.322 29.5361C117.357 29.501 117.404 29.4512 117.463 29.3867C117.527 29.3223 117.656 29.2051 117.85 29.0352C118.049 28.8652 118.257 28.7188 118.474 28.5957C119.036 28.2676 119.657 28.1035 120.337 28.1035C121.017 28.1035 121.62 28.2676 122.147 28.5957C122.675 28.9238 123.076 29.3896 123.352 29.9932C123.521 29.7412 123.729 29.4922 123.976 29.2461C124.222 29 124.597 28.748 125.101 28.4902C125.604 28.2324 126.132 28.1035 126.683 28.1035C127.749 28.1035 128.599 28.4639 129.231 29.1846C129.87 29.8994 130.189 30.9189 130.189 32.2432V37.8242C130.189 37.9414 130.131 38 130.014 38H128.748C128.631 38 128.572 37.9414 128.572 37.8242V32.2432C128.572 31.2939 128.385 30.5762 128.01 30.0898C127.641 29.6035 127.192 29.3604 126.665 29.3604C126.138 29.3604 125.643 29.5244 125.18 29.8525C124.717 30.1748 124.371 30.4795 124.143 30.7666C123.914 31.0537 123.8 31.2148 123.8 31.25V37.8242C123.8 37.9414 123.741 38 123.624 38H122.358C122.241 38 122.183 37.9414 122.183 37.8242V32.2432C122.183 31.2939 121.995 30.5762 121.62 30.0898C121.251 29.6035 120.803 29.3604 120.275 29.3604C119.748 29.3604 119.253 29.5244 118.79 29.8525C118.327 30.1748 117.981 30.4795 117.753 30.7666C117.524 31.0537 117.41 31.2148 117.41 31.25V37.8242C117.41 37.9414 117.352 38 117.234 38H115.969C115.852 38 115.793 37.9414 115.793 37.8242Z" fill="white"/>
</g>
<defs>
<filter id="filter0_d_1035_1069" x="0" y="0" width="156" height="64" filterUnits="userSpaceOnUse" color-interpolation-filters="sRGB">
<feFlood flood-opacity="0" result="BackgroundImageFix"/>
<feColorMatrix in="SourceAlpha" type="matrix" values="0 0 0 0 0 0 0 0 0 0 0 0 0 0 0 0 0 0 127 0" result="hardAlpha"/>
<feOffset/>
<feGaussianBlur stdDeviation="4"/>
<feComposite in2="hardAlpha" operator="out"/>
<feColorMatrix type="matrix" values="0 0 0 0 0.227118 0 0 0 0 0.879167 0 0 0 0 0.683552 0 0 0 0.2 0"/>
<feBlend mode="normal" in2="BackgroundImageFix" result="effect1_dropShadow_1035_1069"/>
<feBlend mode="normal" in="SourceGraphic" in2="effect1_dropShadow_1035_1069" result="shape"/>
</filter>
</defs>
</svg>
